GIL02_fast3_ik
nRows=3
nColumns=375

# SIMM Motion File Header:
name GIL02_fast3_ik
datacolumns 375
datarows 3
otherdata 1
range 0.76667000 0.78333000
endheader
time	pelvis_tx	pelvis_ty	pelvis_tz	pelvis_tilt	pelvis_list	pelvis_rotation	hip_flexion_r	hip_adduction_r	hip_rotation_r	knee_angle_r	ankle_angle_r	hip_flexion_l	hip_adduction_l	hip_rotation_l	knee_angle_l	ankle_angle_l	lumbar_extension	lumbar_bending	lumbar_rotation	subtalar_angle_r	mtp_angle_r	subtalar_angle_l	mtp_angle_l	asis_r_px	asis_r_py	asis_r_pz	asis_l_px	asis_l_py	asis_l_pz	midasis_px	midasis_py	midasis_pz	psis_r_px	psis_r_py	psis_r_pz	psis_l_px	psis_l_py	psis_l_pz	hip_r_px	hip_r_py	hip_r_pz	hip_l_px	hip_l_py	hip_l_pz	midhip_px	midhip_py	midhip_pz	epicondLat_r_px	epicondLat_r_py	epicondLat_r_pz	epicondMed_r_px	epicondMed_r_py	epicondMed_r_pz	thighwand_r_px	thighwand_r_py	thighwand_r_pz	upperleg1_r_px	upperleg1_r_py	upperleg1_r_pz	upperleg2_r_px	upperleg2_r_py	upperleg2_r_pz	malleolusLat_r_px	malleolusLat_r_py	malleolusLat_r_pz	malleolusMedv_r_px	malleolusMedv_r_py	malleolusMedv_r_pz	shankwand_r_px	shankwand_r_py	shankwand_r_pz	lowerleg1_r_px	lowerleg1_r_py	lowerleg1_r_pz	knee_r_px	knee_r_py	knee_r_pz	ankle_r_px	ankle_r_py	ankle_r_pz	toe_r_px	toe_r_py	toe_r_pz	epicondLat_l_px	epicondLat_l_py	epicondLat_l_pz	epicondMed_l_px	epicondMed_l_py	epicondMed_l_pz	thighwand_l_px	thighwand_l_py	thighwand_l_pz	upperleg1_l_px	upperleg1_l_py	upperleg1_l_pz	upperleg2_l_px	upperleg2_l_py	upperleg2_l_pz	malleolusLat_l_px	malleolusLat_l_py	malleolusLat_l_pz	malleolusMedv_l_px	malleolusMedv_l_py	malleolusMedv_l_pz	shankwand_l_px	shankwand_l_py	shankwand_l_pz	lowerleg1_l_px	lowerleg1_l_py	lowerleg1_l_pz	knee_l_px	knee_l_py	knee_l_pz	ankle_l_px	ankle_l_py	ankle_l_pz	toe_l_px	toe_l_py	toe_l_pz	subclavicle_r_px	subclavicle_r_py	subclavicle_r_pz	subclavicle_l_px	subclavicle_l_py	subclavicle_l_pz	neck_px	neck_py	neck_pz	sternalnotch_px	sternalnotch_py	sternalnotch_pz	xyphoidprocess_px	xyphoidprocess_py	xyphoidprocess_pz	midhip_tx	midhip_ty	midhip_tz	hip_r_tx	hip_r_ty	hip_r_tz	hip_l_tx	hip_l_ty	hip_l_tz	knee_r_tx	knee_r_ty	knee_r_tz	knee_l_tx	knee_l_ty	knee_l_tz	ankle_r_tx	ankle_r_ty	ankle_r_tz	ankle_l_tx	ankle_l_ty	ankle_l_tz	midasis_tx	midasis_ty	midasis_tz	asis_r_tx	asis_r_ty	asis_r_tz	asis_l_tx	asis_l_ty	asis_l_tz	psis_r_tx	psis_r_ty	psis_r_tz	psis_l_tx	psis_l_ty	psis_l_tz	epicondLat_r_tx	epicondLat_r_ty	epicondLat_r_tz	epicondLat_l_tx	epicondLat_l_ty	epicondLat_l_tz	epicondMed_r_tx	epicondMed_r_ty	epicondMed_r_tz	epicondMed_l_tx	epicondMed_l_ty	epicondMed_l_tz	malleolusLat_r_tx	malleolusLat_r_ty	malleolusLat_r_tz	malleolusLat_l_tx	malleolusLat_l_ty	malleolusLat_l_tz	malleolusMedv_r_tx	malleolusMedv_r_ty	malleolusMedv_r_tz	malleolusMedv_l_tx	malleolusMedv_l_ty	malleolusMedv_l_tz	neck_tx	neck_ty	neck_tz	subclavicle_r_tx	subclavicle_r_ty	subclavicle_r_tz	subclavicle_l_tx	subclavicle_l_ty	subclavicle_l_tz	sternalnotch_tx	sternalnotch_ty	sternalnotch_tz	xyphoidprocess_tx	xyphoidprocess_ty	xyphoidprocess_tz	thighwand_r_tx	thighwand_r_ty	thighwand_r_tz	thighwand_l_tx	thighwand_l_ty	thighwand_l_tz	upperleg1_r_tx	upperleg1_r_ty	upperleg1_r_tz	upperleg1_l_tx	upperleg1_l_ty	upperleg1_l_tz	upperleg2_r_tx	upperleg2_r_ty	upperleg2_r_tz	upperleg2_l_tx	upperleg2_l_ty	upperleg2_l_tz	shankwand_r_tx	shankwand_r_ty	shankwand_r_tz	shankwand_l_tx	shankwand_l_ty	shankwand_l_tz	lowerleg1_r_tx	lowerleg1_r_ty	lowerleg1_r_tz	lowerleg1_l_tx	lowerleg1_l_ty	lowerleg1_l_tz	toe_r_tx	toe_r_ty	toe_r_tz	toe_l_tx	toe_l_ty	toe_l_tz	ground_force_vx	ground_force_vy	ground_force_vz	ground_force_px	ground_force_py	ground_force_pz	ground_force_vx	ground_force_vy	ground_force_vz	ground_force_px	ground_force_py	ground_force_pz	ground_torque_x	ground_torque_y	ground_torque_z	ground_torque_x	ground_torque_y	ground_torque_z	ground_marker_px	ground_marker_py	ground_marker_pz	ground_marker_px	ground_marker_py	ground_marker_pz	ground_marker_px	ground_marker_py	ground_marker_pz	ground_marker_px	ground_marker_py	ground_marker_pz	ground_marker_px	ground_marker_py	ground_marker_pz	ground_marker_px	ground_marker_py	ground_marker_pz	ground_marker_px	ground_marker_py	ground_marker_pz	ground_marker_px	ground_marker_py	ground_marker_pz	ground_marker_px	ground_marker_py	ground_marker_pz	ground_marker_px	ground_marker_py	ground_marker_pz	ground_marker_px	ground_marker_py	ground_marker_pz	ground_marker_px	ground_marker_py	ground_marker_pz	ground_marker_px	ground_marker_py	ground_marker_pz	ground_marker_px	ground_marker_py	ground_marker_pz	ground_marker_px	ground_marker_py	ground_marker_pz	ground_marker_px	ground_marker_py	ground_marker_pz	ground_marker_px	ground_marker_py	ground_marker_pz	ground_marker_px	ground_marker_py	ground_marker_pz	ground_marker_px	ground_marker_py	ground_marker_pz	ground_marker_px	ground_marker_py	ground_marker_pz	ground_marker_px	ground_marker_py	ground_marker_pz	ground_marker_px	ground_marker_py	ground_marker_pz	ground_marker_px	ground_marker_py	ground_marker_pz	ground_marker_px	ground_marker_py	ground_marker_pz	ground_marker_px	ground_marker_py	ground_marker_pz	ground_marker_px	ground_marker_py	ground_marker_pz	ground_marker_px	ground_marker_py	ground_marker_pz	ground_marker_px	ground_marker_py	ground_marker_pz	ground_marker_px	ground_marker_py	ground_marker_pz	ground_marker_px	ground_marker_py	ground_marker_pz	ground_marker_px	ground_marker_py	ground_marker_pz	ground_marker_px	ground_marker_py	ground_marker_pz	ground_marker_px	ground_marker_py	ground_marker_pz	ground_marker_px	ground_marker_py	ground_marker_pz	ground_marker_px	ground_marker_py	ground_marker_pz	ground_marker_px	ground_marker_py	ground_marker_pz	ground_marker_px	ground_marker_py	ground_marker_pz
      0.76667000	      1.53979032	      0.94766611	     -0.18142543	     -2.27588629	      4.27041424	     -3.46576351	     26.30184283	     -5.09395814	     10.32453886	    -45.17560299	      1.53358409	     -3.54640891	     10.30268681	      6.42819278	     -3.17228561	      6.11283333	      0.95447767	     -2.87657057	      0.05383532	      0.00000000	      0.00000000	      0.00000000	      0.00000000	      1.57859407	      0.93739591	     -0.06184033	      1.59617502	      0.96084978	     -0.29818938	      1.55277845	      0.94709125	     -0.18064025	      1.40176921	      1.00657907	     -0.15553812	      1.41267401	      1.01136657	     -0.24068487	      1.46684340	      0.88371096	     -0.11264497	      1.47668666	      0.89487672	     -0.26729436	      1.47176503	      0.88929384	     -0.18996966	      1.66308296	      0.50797727	     -0.01887470	      1.62639958	      0.49270220	     -0.12368092	      1.66992920	      0.63866572	      0.03896691	      1.64998190	      0.69622607	     -0.03521307	      1.67759407	      0.61207057	     -0.04945933	      1.47519662	      0.12261769	     -0.00749911	      1.49641888	      0.12386624	     -0.07614585	      1.55160468	      0.24197884	      0.06864722	      1.52341802	      0.21286744	     -0.00137369	      1.63932005	      0.49530009	     -0.09228157	      1.49326001	      0.12756522	     -0.05253907	      1.59245469	      0.05040342	     -0.02327608	      1.45058756	      0.45265564	     -0.28950052	      1.42560815	      0.47201420	     -0.18344363	      1.60138183	      0.54620645	     -0.21408696	      1.54972155	      0.60715926	     -0.27068763	      1.52010868	      0.52557039	     -0.26536329	      1.33909041	      0.07562716	     -0.23089622	      1.35834940	      0.09175982	     -0.16871424	      1.40104768	      0.19610510	     -0.32376720	      1.36963982	      0.17061630	     -0.25318937	      1.42587673	      0.48078995	     -0.22558308	      1.36023651	      0.09027928	     -0.18904942	      1.47510700	      0.04451617	     -0.21484715	      1.49115123	      1.35412386	     -0.11529839	      1.51070359	      1.36025173	     -0.22167341	      1.36659641	      1.42174313	     -0.17984606	      1.48308250	      1.36379818	     -0.16843990	      1.57752223	      1.20670706	     -0.17206721	      1.47076300	      0.89602400	     -0.18622500	      1.46228400	      0.87399300	     -0.11657000	      1.47381100	      0.88184900	     -0.26635100	      1.63352500	      0.48746300	     -0.07913100	      1.42734400	      0.46849300	     -0.22163700	      1.48842100	      0.11946900	     -0.07671700	      1.35916300	      0.07835700	     -0.17271100	      1.55733000	      0.96110000	     -0.18022700	      1.54843700	      0.95504000	     -0.06467500	      1.56622200	      0.96716000	     -0.29577900	      1.37065200	      1.00493700	     -0.15251400	      1.38104500	      1.01054900	     -0.23708500	      1.63653600	      0.49441600	     -0.02112300	      1.43720600	      0.46125200	     -0.27833200	      1.64010300	      0.47398000	     -0.13247400	      1.40559900	      0.45890000	     -0.17298400	      1.47290600	      0.12582500	     -0.04040100	      1.34329000	      0.07666900	     -0.20829500	      1.50286000	      0.12843200	     -0.10330500	      1.36491200	      0.09632100	     -0.14808600	      1.36725600	      1.42376900	     -0.17934000	      1.49330800	      1.35698600	     -0.11663700	      1.50810000	      1.35956600	     -0.22285400	      1.48298200	      1.36468700	     -0.16904800	      1.57565400	      1.20694100	     -0.17190300	      1.63877400	      0.59649700	      0.05267100	      1.58301600	      0.53164400	     -0.21719000	      1.63386800	      0.66271200	     -0.01444900	      1.52608600	      0.59137100	     -0.26934600	      1.66778100	      0.58305400	     -0.03329600	      1.49431500	      0.51029800	     -0.26222000	      1.53032000	      0.24678000	      0.04643700	      1.39401500	      0.19713600	     -0.30682500	      1.51493500	      0.21671200	     -0.02659200	      1.36699900	      0.17242700	     -0.23430200	      1.58559100	      0.05634000	     -0.05155900	      1.47678500	      0.03977700	     -0.18231400	      0.00000000	      0.00000000	      0.00000000	      0.92626471	      0.00000000	     -0.17359875	     -7.61122753	    440.26353014	     -4.09193945	      1.46619702	      0.00000000	     -0.19373628	      0.00000000	      0.00000000	      0.00000000	      0.00000000	      0.14343330	      0.00000000	      1.47076297	      0.89602351	     -0.18622465	      1.46228445	      0.87399322	     -0.11656965	      1.47381139	      0.88184875	     -0.26635084	      1.63352478	      0.48746312	     -0.07913074	      1.42734408	      0.46849343	     -0.22163689	      1.48842132	      0.11946875	     -0.07671709	      1.35916269	      0.07835714	     -0.17271122	      1.55732977	      0.96109998	     -0.18022680	      1.54843712	      0.95503968	     -0.06467474	      1.56622243	      0.96716034	     -0.29577887	      1.37065208	      1.00493705	     -0.15251389	      1.38104546	      1.01054931	     -0.23708498	      1.63653624	      0.49441573	     -0.02112349	      1.43720627	      0.46125194	     -0.27833167	      1.64010274	      0.47398046	     -0.13247421	      1.40559864	      0.45889965	     -0.17298351	      1.47290611	      0.12582472	     -0.04040069	      1.34328961	      0.07666872	     -0.20829491	      1.50285959	      0.12843151	     -0.10330533	      1.36491215	      0.09632123	     -0.14808618	      1.36725593	      1.42376852	     -0.17933977	      1.49330842	      1.35698593	     -0.11663654	      1.50810039	      1.35956645	     -0.22285433	      1.48298240	      1.36468661	     -0.16904849	      1.57565379	      1.20694137	     -0.17190331	      1.63877380	      0.59649688	      0.05267082	      1.58301592	      0.53164351	     -0.21719046	      1.63386774	      0.66271192	     -0.01444889	      1.52608621	      0.59137130	     -0.26934564	      1.66778147	      0.58305424	     -0.03329641	      1.49431455	      0.51029843	     -0.26221952	      1.53032005	      0.24677999	      0.04643738	      1.39401531	      0.19713558	     -0.30682540	      1.51493466	      0.21671239	     -0.02659201	      1.36699915	      0.17242710	     -0.23430200	      1.58559060	      0.05634005	     -0.05155901	      1.47678518	      0.03977681	     -0.18231393
      0.77500000	      1.55155768	      0.94710760	     -0.18108628	     -2.16933489	      4.00006838	     -3.26586457	     26.72465092	     -4.72602340	     10.12431267	    -42.48462797	      1.78532451	     -5.02551435	      9.96789480	      7.36222746	     -2.11425195	      5.95108645	      0.75863072	     -2.68561933	     -0.01197918	      0.00000000	      0.00000000	      0.00000000	      0.00000000	      1.59081997	      0.93746728	     -0.06159846	      1.60748712	      0.95987446	     -0.29811520	      1.56454978	      0.94656366	     -0.18034609	      1.41350755	      1.00584824	     -0.15496315	      1.42409087	      1.01026831	     -0.24017031	      1.47899839	      0.88331514	     -0.11174699	      1.48825259	      0.89379259	     -0.26648089	      1.48362549	      0.88855387	     -0.18911394	      1.67928720	      0.50939037	     -0.01931710	      1.64249121	      0.49397439	     -0.12406320	      1.68495381	      0.64001371	      0.03879852	      1.66423162	      0.69753181	     -0.03520160	      1.69266086	      0.61369309	     -0.04970616	      1.51277928	      0.11521132	     -0.00895107	      1.53344987	      0.11801920	     -0.07771997	      1.58277405	      0.23832897	      0.06737922	      1.55583294	      0.20802411	     -0.00262564	      1.65490491	      0.49705597	     -0.09268700	      1.53023934	      0.12141058	     -0.05407400	      1.63415172	      0.05032813	     -0.02580115	      1.45284190	      0.45225565	     -0.28939329	      1.42708702	      0.47207764	     -0.18360782	      1.60476126	      0.54246764	     -0.21219110	      1.55507704	      0.60456360	     -0.26931583	      1.52364683	      0.52363141	     -0.26440299	      1.33972684	      0.07610796	     -0.23101255	      1.35847522	      0.09230589	     -0.16869165	      1.40295742	      0.19616573	     -0.32356893	      1.37081653	      0.17094013	     -0.25322695	      1.42790397	      0.48097120	     -0.22576514	      1.36054244	      0.09077498	     -0.18900558	      1.47537275	      0.04423993	     -0.21357196	      1.50329144	      1.35339795	     -0.11545553	      1.52256788	      1.35938970	     -0.22188865	      1.37864122	      1.42108748	     -0.17974488	      1.49509234	      1.36302426	     -0.16858580	      1.58934638	      1.20582357	     -0.17229484	      1.48262200	      0.89571200	     -0.18579300	      1.47423800	      0.87372400	     -0.11572200	      1.48519700	      0.88104600	     -0.26557300	      1.64979700	      0.48839900	     -0.07994300	      1.42942000	      0.46908300	     -0.22231000	      1.52565900	      0.11205500	     -0.07741500	      1.35932400	      0.07937700	     -0.17275700	      1.56886500	      0.96079200	     -0.18005300	      1.56043100	      0.95515600	     -0.06472200	      1.57729900	      0.96642700	     -0.29538300	      1.38221900	      1.00422600	     -0.15161000	      1.39207400	      1.00976900	     -0.23592400	      1.65287600	      0.49519000	     -0.02192000	      1.43978700	      0.46173700	     -0.27890100	      1.65537100	      0.47459900	     -0.13287500	      1.40709200	      0.46170600	     -0.17301900	      1.50987100	      0.11750700	     -0.04106900	      1.34331400	      0.07773900	     -0.20828100	      1.53920100	      0.12181200	     -0.10395900	      1.36551600	      0.09730400	     -0.14834800	      1.37931700	      1.42321000	     -0.17919700	      1.50521400	      1.35635200	     -0.11686400	      1.52004200	      1.35906800	     -0.22266000	      1.49506600	      1.36413200	     -0.16926100	      1.58751200	      1.20634500	     -0.17207300	      1.65400600	      0.59727500	      0.05188100	      1.58649700	      0.52929400	     -0.21595400	      1.64764600	      0.66334900	     -0.01478500	      1.53189000	      0.59058400	     -0.26909400	      1.68251100	      0.58393700	     -0.03395900	      1.49796100	      0.51002900	     -0.26162900	      1.56052400	      0.24171900	      0.04575100	      1.39437200	      0.19806900	     -0.30717200	      1.54613300	      0.21028300	     -0.02745000	      1.36753700	      0.17360800	     -0.23460200	      1.62644900	      0.05508200	     -0.05341800	      1.47665000	      0.03984000	     -0.18257200	      0.00000000	      0.00000000	      0.00000000	      0.92766516	      0.00000000	     -0.17455763	     -2.35373226	    430.55134086	     -3.03642893	      1.46735913	      0.00000000	     -0.19391006	      0.00000000	      0.00000000	      0.00000000	      0.00000000	      0.16313513	      0.00000000	      1.48262167	      0.89571214	     -0.18579271	      1.47423816	      0.87372386	     -0.11572197	      1.48519707	      0.88104570	     -0.26557282	      1.64979720	      0.48839927	     -0.07994334	      1.42941988	      0.46908346	     -0.22230962	      1.52565873	      0.11205523	     -0.07741513	      1.35932446	      0.07937664	     -0.17275721	      1.56886482	      0.96079159	     -0.18005252	      1.56043053	      0.95515645	     -0.06472199	      1.57729924	      0.96642673	     -0.29538307	      1.38221943	      1.00422633	     -0.15161014	      1.39207435	      1.00976944	     -0.23592441	      1.65287602	      0.49518961	     -0.02192039	      1.43978679	      0.46173683	     -0.27890074	      1.65537107	      0.47459909	     -0.13287456	      1.40709233	      0.46170571	     -0.17301895	      1.50987065	      0.11750719	     -0.04106944	      1.34331369	      0.07773944	     -0.20828146	      1.53920090	      0.12181216	     -0.10395922	      1.36551571	      0.09730410	     -0.14834830	      1.37931681	      1.42321026	     -0.17919730	      1.50521421	      1.35635197	     -0.11686427	      1.52004194	      1.35906780	     -0.22266048	      1.49506605	      1.36413157	     -0.16926114	      1.58751202	      1.20634496	     -0.17207287	      1.65400636	      0.59727508	      0.05188114	      1.58649719	      0.52929413	     -0.21595439	      1.64764619	      0.66334939	     -0.01478527	      1.53189027	      0.59058398	     -0.26909378	      1.68251061	      0.58393747	     -0.03395864	      1.49796093	      0.51002890	     -0.26162940	      1.56052363	      0.24171914	      0.04575137	      1.39437246	      0.19806880	     -0.30717164	      1.54613328	      0.21028344	     -0.02745027	      1.36753750	      0.17360777	     -0.23460199	      1.62644923	      0.05508165	     -0.05341841	      1.47665012	      0.03983991	     -0.18257248
      0.78333000	      1.56330737	      0.94625671	     -0.18063265	     -2.03678464	      3.71840628	     -3.05108558	     27.06433882	     -4.38055521	      9.71866943	    -39.72366780	      1.98728255	     -6.48408393	      9.61116806	      8.32732707	     -1.14028849	      5.84550468	      0.51698632	     -2.56991976	      0.14039717	      0.00000000	      0.00000000	      0.00000000	      0.00000000	      1.60306147	      0.93728809	     -0.06125519	      1.61874553	      0.95860691	     -0.29793971	      1.57630363	      0.94574953	     -0.17994086	      1.42520969	      1.00476845	     -0.15424851	      1.43544819	      1.00880820	     -0.23951666	      1.49118439	      0.88261117	     -0.11070565	      1.49980622	      0.89237243	     -0.26552289	      1.49549531	      0.88749180	     -0.18811427	      1.69489221	      0.51025705	     -0.01941396	      1.65828163	      0.49484378	     -0.12422541	      1.69932579	      0.64073640	      0.03913069	      1.67810066	      0.69830195	     -0.03468977	      1.70731099	      0.61477805	     -0.04945629	      1.55030242	      0.10846062	     -0.01115517	      1.57053378	      0.11288547	     -0.07996964	      1.61341782	      0.23488796	      0.06576108	      1.58800362	      0.20354073	     -0.00435567	      1.67007394	      0.49833414	     -0.09282614	      1.56721889	      0.11593644	     -0.05629172	      1.67534557	      0.05111842	     -0.02877634	      1.45547601	      0.45167634	     -0.28909289	      1.42888428	      0.47199993	     -0.18361008	      1.60831411	      0.53867922	     -0.21004300	      1.56061732	      0.60181412	     -0.26772024	      1.52745106	      0.52155327	     -0.26322480	      1.34045487	      0.07647471	     -0.23091080	      1.35865975	      0.09274710	     -0.16844831	      1.40509699	      0.19603719	     -0.32313264	      1.37216165	      0.17112030	     -0.25304859	      1.43028786	      0.48097525	     -0.22577869	      1.36091952	      0.09115748	     -0.18873721	      1.47571560	      0.04387788	     -0.21200769	      1.51575923	      1.35241043	     -0.11611455	      1.53432093	      1.35811426	     -0.22269044	      1.39077406	      1.42012694	     -0.17972157	      1.50721345	      1.36191929	     -0.16921133	      1.60121062	      1.20457109	     -0.17317546	      1.49418800	      0.89484500	     -0.18525200	      1.48626800	      0.87315300	     -0.11479500	      1.49661100	      0.87994800	     -0.26471400	      1.66565400	      0.48893300	     -0.08079300	      1.43188600	      0.46960900	     -0.22290900	      1.56308100	      0.10528800	     -0.07842300	      1.35956700	      0.08037300	     -0.17275000	      1.58041900	      0.96021800	     -0.17982300	      1.57247500	      0.95499900	     -0.06467500	      1.58836300	      0.96543700	     -0.29497200	      1.39375800	      1.00321900	     -0.15068800	      1.40309700	      1.00864300	     -0.23481700	      1.66864000	      0.49546500	     -0.02273500	      1.44278600	      0.46213700	     -0.27938400	      1.67081900	      0.47531100	     -0.13397800	      1.40883600	      0.46261800	     -0.17384800	      1.54707600	      0.10979200	     -0.04204300	      1.34342700	      0.07880100	     -0.20821800	      1.57587400	      0.11568700	     -0.10494500	      1.36617700	      0.09812600	     -0.14850900	      1.39148700	      1.42249200	     -0.17939900	      1.51707400	      1.35522500	     -0.11671000	      1.53245700	      1.35886300	     -0.22312000	      1.50716300	      1.36327400	     -0.16949000	      1.59978800	      1.20576500	     -0.17316900	      1.66848100	      0.59742200	      0.05109300	      1.59012700	      0.52706800	     -0.21460100	      1.66162300	      0.66368100	     -0.01548100	      1.53703700	      0.58981200	     -0.26838000	      1.69702800	      0.58466000	     -0.03476200	      1.50138800	      0.50911700	     -0.26130500	      1.59075500	      0.23687000	      0.04486200	      1.39494100	      0.19896000	     -0.30748500	      1.57790700	      0.20401900	     -0.02842500	      1.36822500	      0.17475000	     -0.23448900	      1.66716000	      0.05455900	     -0.05536400	      1.47658000	      0.03990500	     -0.18278200	      0.00000000	      0.00000000	      0.00000000	      0.92890363	      0.00000000	     -0.17530647	      3.20746992	    425.12349763	     -1.38036303	      1.46827856	      0.00000000	     -0.19406081	      0.00000000	      0.00000000	      0.00000000	      0.00000000	      0.19674350	      0.00000000	      1.49418783	      0.89484459	     -0.18525217	      1.48626840	      0.87315273	     -0.11479453	      1.49661124	      0.87994790	     -0.26471397	      1.66565442	      0.48893306	     -0.08079281	      1.43188596	      0.46960935	     -0.22290924	      1.56308115	      0.10528797	     -0.07842300	      1.35956669	      0.08037268	     -0.17274953	      1.58041906	      0.96021789	     -0.17982343	      1.57247508	      0.95499873	     -0.06467469	      1.58836305	      0.96543705	     -0.29497215	      1.39375806	      1.00321937	     -0.15068765	      1.40309715	      1.00864279	     -0.23481703	      1.66863966	      0.49546462	     -0.02273527	      1.44278550	      0.46213657	     -0.27938363	      1.67081892	      0.47531107	     -0.13397834	      1.40883625	      0.46261805	     -0.17384771	      1.54707563	      0.10979201	     -0.04204255	      1.34342670	      0.07880067	     -0.20821831	      1.57587409	      0.11568724	     -0.10494533	      1.36617708	      0.09812595	     -0.14850856	      1.39148700	      1.42249167	     -0.17939863	      1.51707423	      1.35522497	     -0.11671037	      1.53245711	      1.35886252	     -0.22311994	      1.50716293	      1.36327398	     -0.16948991	      1.59978783	      1.20576465	     -0.17316902	      1.66848099	      0.59742194	      0.05109258	      1.59012723	      0.52706838	     -0.21460080	      1.66162336	      0.66368115	     -0.01548127	      1.53703749	      0.58981192	     -0.26837981	      1.69702756	      0.58465981	     -0.03476212	      1.50138819	      0.50911665	     -0.26130474	      1.59075475	      0.23687039	      0.04486211	      1.39494085	      0.19896005	     -0.30748525	      1.57790720	      0.20401892	     -0.02842547	      1.36822486	      0.17474997	     -0.23448946	      1.66715980	      0.05455869	     -0.05536358	      1.47657979	      0.03990462	     -0.18278237
